# xmcd
#
# Track frame offsets:
#	150
#	9335
#	25585
#	35637
#	48402
#	60402
#	75415
#	85047
#	101617
#	116005
#	131990
#	144597
#	161375
#	172330
#	183260
#	196502
#
# Disc length: 3084 seconds
#
# Revision: 1
# Processed by: cddbd v1.5.1PL0 Copyright (c) Steve Scherf et al.
# Submitted via: audiograbber 1.80
#
DISCID=c50c0a10
DTITLE=Heli Lääts - Kutse Tantsule nr.6
DYEAR=1900
DGENRE=
TTITLE0=Ei me ette tea
TTITLE1=Oo, mustlane, mängi
TTITLE2=Kiigepolka
TTITLE3=Toomepuu
TTITLE4=Truudusetu süda
TTITLE5=Valss filmist ''Lily''
TTITLE6=Igal mehel suudlus
TTITLE7=Väike aed
TTITLE8=Roosid
TTITLE9=Tallinn,mu Tallinn
TTITLE10=Võrukael
TTITLE11=Kui ootab sadam
TTITLE12=Hing tulvil armastust
TTITLE13=Aeg oo mks kiirelt läed
TTITLE14=Tsirkus
TTITLE15=Mälestus
EXTD=
EXTT0=
EXTT1=
EXTT2=
EXTT3=
EXTT4=
EXTT5=
EXTT6=
EXTT7=
EXTT8=
EXTT9=
EXTT10=
EXTT11=
EXTT12=
EXTT13=
EXTT14=
EXTT15=
PLAYORDER=
